<?xml version="1.0" encoding="UTF-8" standalone="no"?>
<svg
   xmlns:dc="http://purl.org/dc/elements/1.1/"
   xmlns:cc="http://creativecommons.org/ns#"
   xmlns:rdf="http://www.w3.org/1999/02/22-rdf-syntax-ns#"
   xmlns:svg="http://www.w3.org/2000/svg"
   xmlns="http://www.w3.org/2000/svg"
   xmlns:sodipodi="http://sodipodi.sourceforge.net/DTD/sodipodi-0.dtd"
   xmlns:inkscape="http://www.inkscape.org/namespaces/inkscape"
   inkscape:version="1.0 (4035a4f, 2020-05-01)"
   id="svg8"
   version="1.1"
   viewBox="0 0 974.33435 165.83737"
   height="165.83737mm"
   width="974.33435mm">
  <defs
     id="defs2">
    <clipPath
       id="clipPath18"
       clipPathUnits="userSpaceOnUse">
      <path
         id="path16"
         d="M 0,1074.036 H 3435.508 V 0 H 0 Z" />
    </clipPath>
  </defs>
  <sodipodi:namedview
     fit-margin-bottom="0"
     fit-margin-right="0"
     fit-margin-left="0"
     fit-margin-top="0"
     inkscape:window-maximized="0"
     inkscape:window-y="23"
     inkscape:window-x="0"
     inkscape:window-height="679"
     inkscape:window-width="1252"
     showgrid="false"
     inkscape:document-rotation="0"
     inkscape:current-layer="layer1"
     inkscape:document-units="mm"
     inkscape:cy="314.6533"
     inkscape:cx="1595.255"
     inkscape:zoom="0.35"
     inkscape:pageshadow="2"
     inkscape:pageopacity="0.0"
     borderopacity="1.0"
     bordercolor="#666666"
     pagecolor="#ffffff"
     id="base" />
  <metadata
     id="metadata5">
    <rdf:RDF>
      <cc:Work
         rdf:about="">
        <dc:format>image/svg+xml</dc:format>
        <dc:type
           rdf:resource="http://purl.org/dc/dcmitype/StillImage" />
        <dc:title></dc:title>
      </cc:Work>
    </rdf:RDF>
  </metadata>
  <g
     transform="translate(317.07789,-65.247981)"
     id="layer1"
     inkscape:groupmode="layer"
     inkscape:label="Lager 1">
    <g
       clip-path="url(#clipPath18)"
       id="g14"
       transform="matrix(0.35277777,0,0,-0.35277777,-435.99144,349.24413)">
      <g
         transform="translate(2505.2393,428.7503)"
         id="g20">
        <path
           id="path22"
           style="fill:#0e3178;fill-opacity:1;fill-rule:nonzero;stroke:none"
           d="m 0,0 c -3.739,-10.677 -7.182,-20.567 -10.666,-30.443 -6.944,-19.687 -13.986,-39.34 -20.795,-59.074 -1.117,-3.238 -2.677,-4.298 -6.089,-4.295 -103.614,0.113 -207.229,0.003 -310.845,0.204 -39.245,0.076 -77.995,4.576 -115.789,15.621 -31.753,9.279 -61.667,22.424 -87.706,43.279 -23.765,19.034 -40.57,42.757 -47.921,72.644 -5.21,21.184 -5.555,42.579 -1.141,63.85 13.246,63.838 45.272,116.827 93.824,159.979 33.067,29.39 70.882,51.139 111.665,67.829 45.523,18.63 92.581,31.98 141.135,39.971 26.974,4.439 54.112,6.736 81.473,6.713 100.488,-0.082 200.976,-0.032 301.464,-0.032 h 5.462 c -3.614,-10.32 -7.098,-20.292 -10.599,-30.258 -6.967,-19.829 -14.032,-39.626 -20.83,-59.512 -1.176,-3.441 -2.837,-4.446 -6.385,-4.442 -95.371,0.096 -190.743,-0.058 -286.114,0.134 -46.555,0.094 -122.27,-24.015 -164.832,-78.901 -21.566,-27.809 -35.959,-58.872 -41.712,-93.606 -3.528,-21.301 -2.088,-42.371 8.258,-61.881 11.905,-22.447 31.297,-35.473 55.296,-42.222 14.603,-4.108 29.558,-5.568 44.693,-5.565 C -209.412,0.009 -130.67,0 -51.929,0 h 46.478 z" />
      </g>
      <g
         transform="translate(2745.624,701.1678)"
         id="g24">
        <path
           id="path26"
           style="fill:#0e3178;fill-opacity:1;fill-rule:nonzero;stroke:none"
           d="M 0,0 C 2.09,0 3.597,0 5.104,0 15.9,0 26.7,-0.173 37.49,0.081 c 4.79,0.113 9.693,0.57 14.315,1.76 23.466,6.041 38.883,20.381 44.105,44.481 0.878,4.047 0.863,8.564 0.085,12.64 C 93.999,69.421 85.913,76.651 73.881,77.478 59.74,78.449 45.506,78.001 31.317,78.387 28.162,78.473 26.865,77.274 25.896,74.449 20.01,57.296 13.95,40.203 7.97,23.083 5.37,15.642 2.823,8.183 0,0 m -24.639,77.818 c -16.152,8.481 -32.049,16.828 -47.946,25.174 0.034,0.258 0.069,0.515 0.105,0.773 h 3.571 c 50.606,0.008 101.213,0.055 151.818,0.001 14.61,-0.016 28.857,-2.227 42.359,-8.129 8.325,-3.64 15.842,-8.471 21.166,-15.991 8.168,-11.538 8.153,-24.104 4.025,-37.043 C 143.036,19.335 127.526,3.024 106.132,-7.818 83.651,-19.21 59.768,-25.443 34.427,-25.475 c -13.078,-0.016 -26.158,-0.126 -39.233,0.082 -3.312,0.053 -4.613,-1.086 -5.66,-4.129 -8.902,-25.871 -18.078,-51.647 -26.929,-77.535 -1.198,-3.506 -2.847,-4.464 -6.349,-4.418 -14.213,0.184 -28.43,0.076 -42.645,0.076 h -5.246 c 22.417,63.311 44.612,125.996 66.996,189.217" />
      </g>
      <g
         transform="translate(2850.6055,581.0233)"
         id="g28">
        <path
           id="path30"
           style="fill:#0e3178;fill-opacity:1;fill-rule:nonzero;stroke:none"
           d="m 0,0 c 2.526,7.31 4.984,13.944 7.074,20.692 0.914,2.952 2.355,3.864 5.429,3.847 24.3,-0.131 48.602,-0.284 72.899,-0.005 19.65,0.226 46.32,11.36 54.137,41.898 3.029,11.831 0.387,21.777 -7.637,27.723 -5.343,3.959 -11.571,5.166 -18.059,5.501 -11.421,0.59 -22.475,2.893 -33.014,7.402 -24.369,10.425 -32.573,29.321 -23.621,54.335 7.482,20.906 22.012,35.582 41.41,45.466 21.667,11.04 44.733,17.079 69.193,17.107 25.721,0.029 51.442,0.007 77.163,0.007 h 3.391 c -0.297,-1.278 -0.445,-2.318 -0.782,-3.293 -2.037,-5.892 -4.279,-11.719 -6.11,-17.673 -0.849,-2.761 -2.087,-3.699 -5.038,-3.682 -23.448,0.133 -46.899,0.318 -70.34,-0.078 -6.849,-0.116 -13.94,-1.211 -20.447,-3.316 -19.959,-6.456 -32.431,-20.256 -37.018,-40.804 -3.793,-16.99 6.302,-29.867 23.743,-30.84 13.124,-0.732 25.933,-2.964 37.916,-8.718 6.871,-3.298 13.099,-7.498 17.721,-13.654 7.898,-10.521 8.607,-22.245 5.094,-34.443 C 186.035,42.931 169.762,26.246 147.238,15.482 126.129,5.394 103.896,-0.323 80.241,-0.061 55.234,0.216 30.222,0 5.212,0 3.655,0 2.098,0 0,0" />
      </g>
      <g
         transform="translate(688.2338,776.305)"
         id="g32">
        <path
           id="path34"
           style="fill:#0e3178;fill-opacity:1;fill-rule:nonzero;stroke:none"
           d="m 0,0 h -193.248 l -157.908,-439.809 h 193.249 z" />
      </g>
      <g
         transform="translate(1024.368,776.305)"
         id="g36">
        <path
           id="path38"
           style="fill:#0e3178;fill-opacity:1;fill-rule:nonzero;stroke:none"
           d="m 0,0 h -193.248 l -157.908,-439.809 h 193.248 z" />
      </g>
      <g
         transform="translate(2012.993,803.4554)"
         id="g40">
        <path
           id="path42"
           style="fill:#d71921;fill-opacity:1;fill-rule:nonzero;stroke:none"
           d="M 0,0 -34.863,-94.604 H -268.886 L -309.08,-206.516 C -263.626,-19.724 -519.646,0 -519.646,0 Z" />
      </g>
      <g
         transform="translate(1703.913,596.9398)"
         id="g44">
        <path
           id="path46"
           style="fill:#0e3178;fill-opacity:1;fill-rule:nonzero;stroke:none"
           d="m 0,0 v -0.035 l -93.502,-260.393 h -193.26 l 133.697,372.34 h -239.78 l 34.9,94.604 h 147.379 c 0,0 256.02,-19.724 210.566,-206.516" />
      </g>
      <g
         transform="translate(1290.8114,565.7015)"
         id="g48">
        <path
           id="path50"
           style="fill:#0e3178;fill-opacity:1;fill-rule:nonzero;stroke:none"
           d="m 0,0 c -0.32,-0.889 -0.64,-1.777 -0.924,-2.594 l -83.018,-226.595 h -193.26 l 87.39,238.464 c 0.106,0.285 0.213,0.569 0.284,0.853 23.207,65.107 -25.019,133.768 -94.32,133.768 h -357.234 l -130.001,25.659 -143.683,65 h 711.627 c 0,0 103.097,-4.015 167.316,-63.294 C 26.618,113.617 10.981,31.949 0,0" />
      </g>
    </g>
  </g>
</svg>
